<svg width="295" height="87" viewBox="0 0 295 87" fill="none" xmlns="http://www.w3.org/2000/svg">
<g filter="url(#filter0_di_104_97)">
<rect x="6" y="4" width="277" height="69" rx="34.5" fill="white"/>
</g>
<path d="M46.3227 46.2C45.6427 46.2 45.0227 46.0933 44.4627 45.88C43.9027 45.6533 43.456 45.3 43.1227 44.82C42.8027 44.3267 42.6427 43.6867 42.6427 42.9C42.6427 41.8467 42.996 41.0267 43.7027 40.44C44.4093 39.8533 45.456 39.56 46.8427 39.56H50.1427V38.88C50.1427 38.0933 49.9427 37.5467 49.5427 37.24C49.1427 36.92 48.4093 36.76 47.3427 36.76C46.7293 36.76 46.1293 36.8 45.5427 36.88C44.956 36.96 44.3827 37.0933 43.8227 37.28V35.6C44.3427 35.4267 44.9493 35.2867 45.6427 35.18C46.336 35.06 47.0293 35 47.7227 35C48.0693 35 48.396 35.02 48.7027 35.06C49.0227 35.0867 49.316 35.1333 49.5827 35.2H53.2027L53.0827 36.9H51.8227C52.0093 37.1933 52.136 37.5267 52.2027 37.9C52.2693 38.26 52.3027 38.6533 52.3027 39.08V46H50.1427V41.24H46.9627C46.2293 41.24 45.6693 41.3667 45.2827 41.62C44.9093 41.86 44.7227 42.2867 44.7227 42.9C44.7227 43.4867 44.8893 43.8933 45.2227 44.12C45.5693 44.3467 46.1293 44.46 46.9027 44.46C47.1427 44.46 47.3827 44.4467 47.6227 44.42C47.876 44.3933 48.0893 44.3533 48.2627 44.3V45.96C48.0227 46.0267 47.736 46.08 47.4027 46.12C47.0693 46.1733 46.7093 46.2 46.3227 46.2ZM61.0502 46.2C60.2368 46.2 59.5235 46.0733 58.9102 45.82C58.3102 45.5667 57.7635 45.2333 57.2702 44.82L57.1502 46H55.1702V35.2H57.3502V43.16C57.6968 43.5333 58.1302 43.8467 58.6502 44.1C59.1702 44.34 59.7302 44.46 60.3302 44.46C61.0768 44.46 61.6368 44.2867 62.0102 43.94C62.3835 43.58 62.5702 42.9933 62.5702 42.18V35.2H64.7302V42.28C64.7302 43.5333 64.4035 44.5 63.7502 45.18C63.0968 45.86 62.1968 46.2 61.0502 46.2ZM59.9995 33.56V30.64H61.7995V32.04H66.9795L66.8795 33.56H59.9995ZM67.2795 46V39.16C67.2795 37.8533 67.6729 36.8333 68.4595 36.1C69.2462 35.3667 70.4862 35 72.1795 35C73.8862 35 75.1195 35.3667 75.8795 36.1C76.6529 36.8333 77.0395 37.8533 77.0395 39.16V46H74.8595V38.96C74.8595 38.2 74.6262 37.6467 74.1595 37.3C73.6929 36.94 73.0329 36.76 72.1795 36.76C71.2862 36.76 70.6062 36.94 70.1395 37.3C69.6862 37.6467 69.4595 38.2 69.4595 38.96V41.18C70.0462 40.7 70.7462 40.46 71.5595 40.46H72.8595L72.9395 42.2H71.4995C70.6862 42.2 70.0062 42.4267 69.4595 42.88V46H67.2795ZM83.1242 46.2C82.4176 46.2 81.7309 46.1533 81.0642 46.06C80.4109 45.9667 79.8709 45.8333 79.4442 45.66V43.84C79.9509 44.04 80.4976 44.1933 81.0842 44.3C81.6842 44.4067 82.2309 44.46 82.7242 44.46C83.6442 44.46 84.3242 44.38 84.7642 44.22C85.2042 44.0467 85.4242 43.6933 85.4242 43.16C85.4242 42.7733 85.3109 42.48 85.0842 42.28C84.8576 42.08 84.5242 41.9067 84.0842 41.76C83.6442 41.6 83.0976 41.4133 82.4442 41.2C81.8309 40.9867 81.2776 40.7533 80.7842 40.5C80.2909 40.2467 79.8976 39.9267 79.6042 39.54C79.3242 39.1533 79.1842 38.6667 79.1842 38.08C79.1842 37.1333 79.5442 36.3867 80.2642 35.84C80.9842 35.28 82.0709 35 83.5242 35C84.1376 35 84.7442 35.0467 85.3442 35.14C85.9442 35.2333 86.4376 35.3467 86.8242 35.48V37.28C86.3842 37.1067 85.8909 36.98 85.3442 36.9C84.8109 36.8067 84.3109 36.76 83.8442 36.76C83.0709 36.76 82.4509 36.8467 81.9842 37.02C81.5176 37.18 81.2842 37.5133 81.2842 38.02C81.2842 38.3533 81.4042 38.62 81.6442 38.82C81.8842 39.0067 82.2242 39.18 82.6642 39.34C83.1176 39.4867 83.6576 39.6667 84.2842 39.88C84.9909 40.1067 85.5842 40.36 86.0642 40.64C86.5442 40.9067 86.9042 41.24 87.1442 41.64C87.3976 42.0267 87.5242 42.5333 87.5242 43.16C87.5242 44.2133 87.1242 44.9867 86.3242 45.48C85.5376 45.96 84.4709 46.2 83.1242 46.2ZM94.6023 46.2C93.0557 46.2 91.8423 45.8333 90.9623 45.1C90.0957 44.3667 89.6623 43.2667 89.6623 41.8V35.2H91.8423V41.88C91.8423 42.7733 92.0757 43.4267 92.5423 43.84C93.0223 44.2533 93.709 44.46 94.6023 44.46C95.509 44.46 96.1957 44.2533 96.6623 43.84C97.1423 43.4267 97.3823 42.7733 97.3823 41.88V35.2H99.5423V41.8C99.5423 43.2667 99.109 44.3667 98.2423 45.1C97.3757 45.8333 96.1623 46.2 94.6023 46.2ZM94.8042 33.56V30.64H96.6042V32.04H101.784L101.684 33.56H94.8042ZM106.104 46.2C105.264 46.2 104.511 46.0133 103.844 45.64C103.178 45.2667 102.651 44.68 102.264 43.88C101.878 43.0667 101.684 42.0267 101.684 40.76C101.684 38.8933 101.998 37.4667 102.624 36.48C103.251 35.4933 104.124 35 105.244 35C105.791 35 106.224 35.1 106.544 35.3C106.878 35.4867 107.164 35.7333 107.404 36.04C107.684 35.7333 108.051 35.4867 108.504 35.3C108.958 35.1 109.418 35 109.884 35C110.751 35 111.398 35.26 111.824 35.78C112.251 36.2867 112.464 36.9933 112.464 37.9V46H110.284V38.22C110.284 37.7133 110.211 37.3467 110.064 37.12C109.931 36.88 109.651 36.76 109.224 36.76C108.958 36.76 108.711 36.8333 108.484 36.98C108.258 37.1267 108.091 37.36 107.984 37.68H106.784C106.624 37.36 106.458 37.1267 106.284 36.98C106.111 36.8333 105.864 36.76 105.544 36.76C104.851 36.76 104.384 37.1267 104.144 37.86C103.904 38.5933 103.784 39.56 103.784 40.76C103.784 42.1333 104.018 43.0933 104.484 43.64C104.951 44.1867 105.618 44.46 106.484 44.46C106.738 44.46 106.984 44.4467 107.224 44.42C107.478 44.3933 107.691 44.3533 107.864 44.3V45.96C107.638 46.04 107.384 46.1 107.104 46.14C106.824 46.18 106.491 46.2 106.104 46.2ZM118.554 46.2C117.847 46.2 117.161 46.1533 116.494 46.06C115.841 45.9667 115.301 45.8333 114.874 45.66V43.84C115.381 44.04 115.927 44.1933 116.514 44.3C117.114 44.4067 117.661 44.46 118.154 44.46C119.074 44.46 119.754 44.38 120.194 44.22C120.634 44.0467 120.854 43.6933 120.854 43.16C120.854 42.7733 120.741 42.48 120.514 42.28C120.287 42.08 119.954 41.9067 119.514 41.76C119.074 41.6 118.527 41.4133 117.874 41.2C117.261 40.9867 116.707 40.7533 116.214 40.5C115.721 40.2467 115.327 39.9267 115.034 39.54C114.754 39.1533 114.614 38.6667 114.614 38.08C114.614 37.1333 114.974 36.3867 115.694 35.84C116.414 35.28 117.501 35 118.954 35C119.567 35 120.174 35.0467 120.774 35.14C121.374 35.2333 121.867 35.3467 122.254 35.48V37.28C121.814 37.1067 121.321 36.98 120.774 36.9C120.241 36.8067 119.741 36.76 119.274 36.76C118.501 36.76 117.881 36.8467 117.414 37.02C116.947 37.18 116.714 37.5133 116.714 38.02C116.714 38.3533 116.834 38.62 117.074 38.82C117.314 39.0067 117.654 39.18 118.094 39.34C118.547 39.4867 119.087 39.6667 119.714 39.88C120.421 40.1067 121.014 40.36 121.494 40.64C121.974 40.9067 122.334 41.24 122.574 41.64C122.827 42.0267 122.954 42.5333 122.954 43.16C122.954 44.2133 122.554 44.9867 121.754 45.48C120.967 45.96 119.901 46.2 118.554 46.2ZM128.432 46.2C127.752 46.2 127.132 46.0933 126.572 45.88C126.012 45.6533 125.565 45.3 125.232 44.82C124.912 44.3267 124.752 43.6867 124.752 42.9C124.752 41.8467 125.105 41.0267 125.812 40.44C126.519 39.8533 127.565 39.56 128.952 39.56H132.252V38.88C132.252 38.0933 132.052 37.5467 131.652 37.24C131.252 36.92 130.519 36.76 129.452 36.76C128.839 36.76 128.239 36.8 127.652 36.88C127.065 36.96 126.492 37.0933 125.932 37.28V35.6C126.452 35.4267 127.059 35.2867 127.752 35.18C128.445 35.06 129.139 35 129.832 35C130.179 35 130.505 35.02 130.812 35.06C131.132 35.0867 131.425 35.1333 131.692 35.2H135.312L135.192 36.9H133.932C134.119 37.1933 134.245 37.5267 134.312 37.9C134.379 38.26 134.412 38.6533 134.412 39.08V46H132.252V41.24H129.072C128.339 41.24 127.779 41.3667 127.392 41.62C127.019 41.86 126.832 42.2867 126.832 42.9C126.832 43.4867 126.999 43.8933 127.332 44.12C127.679 44.3467 128.239 44.46 129.012 44.46C129.252 44.46 129.492 44.4467 129.732 44.42C129.985 44.3933 130.199 44.3533 130.372 44.3V45.96C130.132 46.0267 129.845 46.08 129.512 46.12C129.179 46.1733 128.819 46.2 128.432 46.2ZM139.42 46C138.686 46 138.153 45.82 137.82 45.46C137.486 45.1 137.32 44.5867 137.32 43.92V35.2H139.48V43.38C139.48 43.98 139.773 44.28 140.36 44.28H141.28V46H139.42ZM146.092 46.2C144.852 46.2 143.772 46 142.852 45.6V43.88C143.252 44.0533 143.686 44.1933 144.152 44.3C144.632 44.4067 145.106 44.46 145.572 44.46C146.479 44.46 147.199 44.3333 147.732 44.08C148.266 43.8267 148.646 43.42 148.872 42.86C149.112 42.2867 149.232 41.5333 149.232 40.6C149.232 39.2133 148.946 38.2267 148.372 37.64C147.812 37.0533 146.872 36.76 145.552 36.76C145.072 36.76 144.606 36.8133 144.152 36.92C143.699 37.0133 143.266 37.1533 142.852 37.34V35.6C143.306 35.4133 143.792 35.2667 144.312 35.16C144.846 35.0533 145.419 35 146.032 35C147.819 35 149.146 35.48 150.012 36.44C150.892 37.3867 151.332 38.7733 151.332 40.6C151.332 42.4133 150.912 43.8 150.072 44.76C149.246 45.72 147.919 46.2 146.092 46.2ZM157.034 46.2C155.874 46.2 154.967 45.86 154.314 45.18C153.674 44.5 153.354 43.5333 153.354 42.28V35.2H155.534V42.18C155.534 42.9933 155.714 43.58 156.074 43.94C156.434 44.2867 156.994 44.46 157.754 44.46C158.34 44.46 158.9 44.34 159.434 44.1C159.967 43.8467 160.407 43.5333 160.754 43.16V35.2H162.914V46H160.934L160.834 44.82C160.34 45.2333 159.78 45.5667 159.154 45.82C158.54 46.0733 157.834 46.2 157.034 46.2ZM167.603 46C166.87 46 166.336 45.82 166.003 45.46C165.67 45.1 165.503 44.5867 165.503 43.92V35.2H167.663V43.38C167.663 43.98 167.956 44.28 168.543 44.28H169.463V46H167.603ZM176.036 46.2C174.529 46.2 173.383 45.86 172.596 45.18C171.809 44.5 171.416 43.54 171.416 42.3V41.5C171.416 41.0733 171.529 40.6533 171.756 40.24C171.996 39.8267 172.263 39.44 172.556 39.08C172.863 38.7067 173.129 38.3667 173.356 38.06C173.596 37.74 173.716 37.4667 173.716 37.24C173.716 36.9467 173.583 36.8 173.316 36.8C173.076 36.8 172.856 36.9 172.656 37.1V37.9H171.176V35.2H172.696V35.76C172.883 35.6133 173.089 35.4867 173.316 35.38C173.556 35.26 173.856 35.2 174.216 35.2C175.229 35.2 175.736 35.7133 175.736 36.74C175.736 37.1933 175.629 37.62 175.416 38.02C175.203 38.4067 174.949 38.7867 174.656 39.16C174.376 39.5333 174.129 39.9133 173.916 40.3C173.703 40.6733 173.596 41.0733 173.596 41.5V42.34C173.596 43.0733 173.809 43.6133 174.236 43.96C174.663 44.2933 175.263 44.46 176.036 44.46C176.823 44.46 177.436 44.2867 177.876 43.94C178.316 43.5933 178.536 43.04 178.536 42.28V40.96C178.536 40.3333 178.429 39.9 178.216 39.66C178.016 39.4067 177.643 39.28 177.096 39.28H176.536L176.636 37.7H177.036C177.596 37.7 177.983 37.5667 178.196 37.3C178.423 37.02 178.536 36.5933 178.536 36.02V35H180.696V35.98C180.696 36.6067 180.603 37.1267 180.416 37.54C180.229 37.94 179.849 38.2533 179.276 38.48C179.876 38.7333 180.263 39.0667 180.436 39.48C180.609 39.8933 180.696 40.4067 180.696 41.02V42.14C180.696 43.42 180.283 44.42 179.456 45.14C178.643 45.8467 177.503 46.2 176.036 46.2ZM178.517 33.54V30.26H180.697V33.54H178.517ZM186.917 46.2C185.757 46.2 184.85 45.86 184.197 45.18C183.557 44.5 183.237 43.5333 183.237 42.28V35.2H185.417V42.18C185.417 42.9933 185.597 43.58 185.957 43.94C186.317 44.2867 186.877 44.46 187.637 44.46C188.223 44.46 188.783 44.34 189.317 44.1C189.85 43.8467 190.29 43.5333 190.637 43.16V35.2H192.797V46H190.817L190.717 44.82C190.223 45.2333 189.663 45.5667 189.037 45.82C188.423 46.0733 187.717 46.2 186.917 46.2ZM198.686 46.2C198.006 46.2 197.386 46.0933 196.826 45.88C196.266 45.6533 195.819 45.3 195.486 44.82C195.166 44.3267 195.006 43.6867 195.006 42.9C195.006 41.8467 195.359 41.0267 196.066 40.44C196.773 39.8533 197.819 39.56 199.206 39.56H202.506V38.88C202.506 38.0933 202.306 37.5467 201.906 37.24C201.506 36.92 200.773 36.76 199.706 36.76C199.093 36.76 198.493 36.8 197.906 36.88C197.319 36.96 196.746 37.0933 196.186 37.28V35.6C196.706 35.4267 197.313 35.2867 198.006 35.18C198.699 35.06 199.393 35 200.086 35C200.433 35 200.759 35.02 201.066 35.06C201.386 35.0867 201.679 35.1333 201.946 35.2H205.566L205.446 36.9H204.186C204.373 37.1933 204.499 37.5267 204.566 37.9C204.633 38.26 204.666 38.6533 204.666 39.08V46H202.506V41.24H199.326C198.593 41.24 198.033 41.3667 197.646 41.62C197.273 41.86 197.086 42.2867 197.086 42.9C197.086 43.4867 197.253 43.8933 197.586 44.12C197.933 44.3467 198.493 44.46 199.266 44.46C199.506 44.46 199.746 44.4467 199.986 44.42C200.239 44.3933 200.453 44.3533 200.626 44.3V45.96C200.386 46.0267 200.099 46.08 199.766 46.12C199.433 46.1733 199.073 46.2 198.686 46.2ZM199.882 33.56V30.64H205.762L205.682 32.16H201.682V33.56H199.882ZM207.713 46V42.1C207.713 41.5133 207.827 41 208.053 40.56C208.28 40.1067 208.693 39.7933 209.293 39.62L207.133 39.08V36.84C207.667 36.3733 208.367 35.9533 209.233 35.58C210.113 35.1933 211.14 35 212.313 35C213.9 35 215.12 35.3333 215.973 36C216.827 36.6533 217.253 37.7533 217.253 39.3V46H215.073V39.24C215.073 38.32 214.853 37.68 214.413 37.32C213.987 36.9467 213.26 36.76 212.233 36.76C211.567 36.76 210.947 36.8533 210.373 37.04C209.8 37.2267 209.347 37.4733 209.013 37.78V38.14L211.293 38.72V40.16C210.773 40.2933 210.407 40.5067 210.193 40.8C209.98 41.0933 209.873 41.5333 209.873 42.12V46H207.713ZM223.879 46V39.2C223.879 38.6533 223.819 38.2 223.699 37.84C223.579 37.48 223.352 37.2133 223.019 37.04C222.686 36.8533 222.192 36.76 221.539 36.76C221.112 36.76 220.646 36.8067 220.139 36.9C219.646 36.9933 219.199 37.12 218.799 37.28V35.6C219.199 35.4267 219.679 35.2867 220.239 35.18C220.812 35.06 221.386 35 221.959 35C223.399 35 224.439 35.3133 225.079 35.94C225.732 36.5667 226.059 37.56 226.059 38.92V46H223.879ZM232.148 46.2C231.441 46.2 230.754 46.1533 230.088 46.06C229.434 45.9667 228.894 45.8333 228.468 45.66V43.84C228.974 44.04 229.521 44.1933 230.108 44.3C230.708 44.4067 231.254 44.46 231.748 44.46C232.668 44.46 233.348 44.38 233.788 44.22C234.228 44.0467 234.448 43.6933 234.448 43.16C234.448 42.7733 234.334 42.48 234.108 42.28C233.881 42.08 233.548 41.9067 233.108 41.76C232.668 41.6 232.121 41.4133 231.468 41.2C230.854 40.9867 230.301 40.7533 229.808 40.5C229.314 40.2467 228.921 39.9267 228.628 39.54C228.348 39.1533 228.208 38.6667 228.208 38.08C228.208 37.1333 228.568 36.3867 229.288 35.84C230.008 35.28 231.094 35 232.548 35C233.161 35 233.768 35.0467 234.368 35.14C234.968 35.2333 235.461 35.3467 235.848 35.48V37.28C235.408 37.1067 234.914 36.98 234.368 36.9C233.834 36.8067 233.334 36.76 232.868 36.76C232.094 36.76 231.474 36.8467 231.008 37.02C230.541 37.18 230.308 37.5133 230.308 38.02C230.308 38.3533 230.428 38.62 230.668 38.82C230.908 39.0067 231.248 39.18 231.688 39.34C232.141 39.4867 232.681 39.6667 233.308 39.88C234.014 40.1067 234.608 40.36 235.088 40.64C235.568 40.9067 235.928 41.24 236.168 41.64C236.421 42.0267 236.548 42.5333 236.548 43.16C236.548 44.2133 236.148 44.9867 235.348 45.48C234.561 45.96 233.494 46.2 232.148 46.2ZM231.406 33.56V30.64H237.286L237.206 32.16H233.206V33.56H231.406ZM242.706 46.2C241.866 46.2 241.112 46.0133 240.446 45.64C239.779 45.2667 239.252 44.68 238.866 43.88C238.479 43.0667 238.286 42.0267 238.286 40.76C238.286 38.96 238.746 37.5533 239.666 36.54C240.586 35.5133 241.966 35 243.806 35C245.046 35 246.046 35.2133 246.806 35.64C247.566 36.0533 248.119 36.5933 248.466 37.26C248.826 37.9267 249.006 38.64 249.006 39.4V46H246.826V39.5C246.826 38.9667 246.732 38.4933 246.546 38.08C246.359 37.6667 246.039 37.3467 245.586 37.12C245.146 36.88 244.539 36.76 243.766 36.76C242.592 36.76 241.732 37.1 241.186 37.78C240.652 38.46 240.386 39.4533 240.386 40.76C240.386 42.1333 240.619 43.0933 241.086 43.64C241.552 44.1867 242.219 44.46 243.086 44.46C243.339 44.46 243.586 44.4467 243.826 44.42C244.079 44.3933 244.292 44.3533 244.466 44.3V45.96C244.239 46.04 243.986 46.1 243.706 46.14C243.426 46.18 243.092 46.2 242.706 46.2Z" fill="#FF0000"/>
<defs>
<filter id="filter0_di_104_97" x="0" y="0" width="295" height="87" filterUnits="userSpaceOnUse" color-interpolation-filters="sRGB">
<feFlood flood-opacity="0" result="BackgroundImageFix"/>
<feColorMatrix in="SourceAlpha" type="matrix" values="0 0 0 0 0 0 0 0 0 0 0 0 0 0 0 0 0 0 127 0" result="hardAlpha"/>
<feMorphology radius="2" operator="dilate" in="SourceAlpha" result="effect1_dropShadow_104_97"/>
<feOffset dx="3" dy="5"/>
<feGaussianBlur stdDeviation="3.5"/>
<feComposite in2="hardAlpha" operator="out"/>
<feColorMatrix type="matrix" values="0 0 0 0 0 0 0 0 0 0 0 0 0 0 0 0 0 0 0.2 0"/>
<feBlend mode="normal" in2="BackgroundImageFix" result="effect1_dropShadow_104_97"/>
<feBlend mode="normal" in="SourceGraphic" in2="effect1_dropShadow_104_97" result="shape"/>
<feColorMatrix in="SourceAlpha" type="matrix" values="0 0 0 0 0 0 0 0 0 0 0 0 0 0 0 0 0 0 127 0" result="hardAlpha"/>
<feOffset dy="4"/>
<feGaussianBlur stdDeviation="2.5"/>
<feComposite in2="hardAlpha" operator="arithmetic" k2="-1" k3="1"/>
<feColorMatrix type="matrix" values="0 0 0 0 0.491667 0 0 0 0 0.163889 0 0 0 0 0.163889 0 0 0 0.1 0"/>
<feBlend mode="normal" in2="shape" result="effect2_innerShadow_104_97"/>
</filter>
</defs>
</svg>
