<svg width="295" height="84" viewBox="0 0 295 84" fill="none" xmlns="http://www.w3.org/2000/svg">
<g filter="url(#filter0_di_104_155)">
<rect x="6" y="4" width="277" height="66" rx="33" fill="#E63238"/>
</g>
<path d="M46.3227 44.2C45.6427 44.2 45.0227 44.0933 44.4627 43.88C43.9027 43.6533 43.456 43.3 43.1227 42.82C42.8027 42.3267 42.6427 41.6867 42.6427 40.9C42.6427 39.8467 42.996 39.0267 43.7027 38.44C44.4093 37.8533 45.456 37.56 46.8427 37.56H50.1427V36.88C50.1427 36.0933 49.9427 35.5467 49.5427 35.24C49.1427 34.92 48.4093 34.76 47.3427 34.76C46.7293 34.76 46.1293 34.8 45.5427 34.88C44.956 34.96 44.3827 35.0933 43.8227 35.28V33.6C44.3427 33.4267 44.9493 33.2867 45.6427 33.18C46.336 33.06 47.0293 33 47.7227 33C48.0693 33 48.396 33.02 48.7027 33.06C49.0227 33.0867 49.316 33.1333 49.5827 33.2H53.2027L53.0827 34.9H51.8227C52.0093 35.1933 52.136 35.5267 52.2027 35.9C52.2693 36.26 52.3027 36.6533 52.3027 37.08V44H50.1427V39.24H46.9627C46.2293 39.24 45.6693 39.3667 45.2827 39.62C44.9093 39.86 44.7227 40.2867 44.7227 40.9C44.7227 41.4867 44.8893 41.8933 45.2227 42.12C45.5693 42.3467 46.1293 42.46 46.9027 42.46C47.1427 42.46 47.3827 42.4467 47.6227 42.42C47.876 42.3933 48.0893 42.3533 48.2627 42.3V43.96C48.0227 44.0267 47.736 44.08 47.4027 44.12C47.0693 44.1733 46.7093 44.2 46.3227 44.2ZM61.0502 44.2C60.2368 44.2 59.5235 44.0733 58.9102 43.82C58.3102 43.5667 57.7635 43.2333 57.2702 42.82L57.1502 44H55.1702V33.2H57.3502V41.16C57.6968 41.5333 58.1302 41.8467 58.6502 42.1C59.1702 42.34 59.7302 42.46 60.3302 42.46C61.0768 42.46 61.6368 42.2867 62.0102 41.94C62.3835 41.58 62.5702 40.9933 62.5702 40.18V33.2H64.7302V40.28C64.7302 41.5333 64.4035 42.5 63.7502 43.18C63.0968 43.86 62.1968 44.2 61.0502 44.2ZM59.9995 31.56V28.64H61.7995V30.04H66.9795L66.8795 31.56H59.9995ZM67.2795 44V37.16C67.2795 35.8533 67.6729 34.8333 68.4595 34.1C69.2462 33.3667 70.4862 33 72.1795 33C73.8862 33 75.1195 33.3667 75.8795 34.1C76.6529 34.8333 77.0395 35.8533 77.0395 37.16V44H74.8595V36.96C74.8595 36.2 74.6262 35.6467 74.1595 35.3C73.6929 34.94 73.0329 34.76 72.1795 34.76C71.2862 34.76 70.6062 34.94 70.1395 35.3C69.6862 35.6467 69.4595 36.2 69.4595 36.96V39.18C70.0462 38.7 70.7462 38.46 71.5595 38.46H72.8595L72.9395 40.2H71.4995C70.6862 40.2 70.0062 40.4267 69.4595 40.88V44H67.2795ZM83.1242 44.2C82.4176 44.2 81.7309 44.1533 81.0642 44.06C80.4109 43.9667 79.8709 43.8333 79.4442 43.66V41.84C79.9509 42.04 80.4976 42.1933 81.0842 42.3C81.6842 42.4067 82.2309 42.46 82.7242 42.46C83.6442 42.46 84.3242 42.38 84.7642 42.22C85.2042 42.0467 85.4242 41.6933 85.4242 41.16C85.4242 40.7733 85.3109 40.48 85.0842 40.28C84.8576 40.08 84.5242 39.9067 84.0842 39.76C83.6442 39.6 83.0976 39.4133 82.4442 39.2C81.8309 38.9867 81.2776 38.7533 80.7842 38.5C80.2909 38.2467 79.8976 37.9267 79.6042 37.54C79.3242 37.1533 79.1842 36.6667 79.1842 36.08C79.1842 35.1333 79.5442 34.3867 80.2642 33.84C80.9842 33.28 82.0709 33 83.5242 33C84.1376 33 84.7442 33.0467 85.3442 33.14C85.9442 33.2333 86.4376 33.3467 86.8242 33.48V35.28C86.3842 35.1067 85.8909 34.98 85.3442 34.9C84.8109 34.8067 84.3109 34.76 83.8442 34.76C83.0709 34.76 82.4509 34.8467 81.9842 35.02C81.5176 35.18 81.2842 35.5133 81.2842 36.02C81.2842 36.3533 81.4042 36.62 81.6442 36.82C81.8842 37.0067 82.2242 37.18 82.6642 37.34C83.1176 37.4867 83.6576 37.6667 84.2842 37.88C84.9909 38.1067 85.5842 38.36 86.0642 38.64C86.5442 38.9067 86.9042 39.24 87.1442 39.64C87.3976 40.0267 87.5242 40.5333 87.5242 41.16C87.5242 42.2133 87.1242 42.9867 86.3242 43.48C85.5376 43.96 84.4709 44.2 83.1242 44.2ZM94.6023 44.2C93.0557 44.2 91.8423 43.8333 90.9623 43.1C90.0957 42.3667 89.6623 41.2667 89.6623 39.8V33.2H91.8423V39.88C91.8423 40.7733 92.0757 41.4267 92.5423 41.84C93.0223 42.2533 93.709 42.46 94.6023 42.46C95.509 42.46 96.1957 42.2533 96.6623 41.84C97.1423 41.4267 97.3823 40.7733 97.3823 39.88V33.2H99.5423V39.8C99.5423 41.2667 99.109 42.3667 98.2423 43.1C97.3757 43.8333 96.1623 44.2 94.6023 44.2ZM94.8042 31.56V28.64H96.6042V30.04H101.784L101.684 31.56H94.8042ZM106.104 44.2C105.264 44.2 104.511 44.0133 103.844 43.64C103.178 43.2667 102.651 42.68 102.264 41.88C101.878 41.0667 101.684 40.0267 101.684 38.76C101.684 36.8933 101.998 35.4667 102.624 34.48C103.251 33.4933 104.124 33 105.244 33C105.791 33 106.224 33.1 106.544 33.3C106.878 33.4867 107.164 33.7333 107.404 34.04C107.684 33.7333 108.051 33.4867 108.504 33.3C108.958 33.1 109.418 33 109.884 33C110.751 33 111.398 33.26 111.824 33.78C112.251 34.2867 112.464 34.9933 112.464 35.9V44H110.284V36.22C110.284 35.7133 110.211 35.3467 110.064 35.12C109.931 34.88 109.651 34.76 109.224 34.76C108.958 34.76 108.711 34.8333 108.484 34.98C108.258 35.1267 108.091 35.36 107.984 35.68H106.784C106.624 35.36 106.458 35.1267 106.284 34.98C106.111 34.8333 105.864 34.76 105.544 34.76C104.851 34.76 104.384 35.1267 104.144 35.86C103.904 36.5933 103.784 37.56 103.784 38.76C103.784 40.1333 104.018 41.0933 104.484 41.64C104.951 42.1867 105.618 42.46 106.484 42.46C106.738 42.46 106.984 42.4467 107.224 42.42C107.478 42.3933 107.691 42.3533 107.864 42.3V43.96C107.638 44.04 107.384 44.1 107.104 44.14C106.824 44.18 106.491 44.2 106.104 44.2ZM118.554 44.2C117.847 44.2 117.161 44.1533 116.494 44.06C115.841 43.9667 115.301 43.8333 114.874 43.66V41.84C115.381 42.04 115.927 42.1933 116.514 42.3C117.114 42.4067 117.661 42.46 118.154 42.46C119.074 42.46 119.754 42.38 120.194 42.22C120.634 42.0467 120.854 41.6933 120.854 41.16C120.854 40.7733 120.741 40.48 120.514 40.28C120.287 40.08 119.954 39.9067 119.514 39.76C119.074 39.6 118.527 39.4133 117.874 39.2C117.261 38.9867 116.707 38.7533 116.214 38.5C115.721 38.2467 115.327 37.9267 115.034 37.54C114.754 37.1533 114.614 36.6667 114.614 36.08C114.614 35.1333 114.974 34.3867 115.694 33.84C116.414 33.28 117.501 33 118.954 33C119.567 33 120.174 33.0467 120.774 33.14C121.374 33.2333 121.867 33.3467 122.254 33.48V35.28C121.814 35.1067 121.321 34.98 120.774 34.9C120.241 34.8067 119.741 34.76 119.274 34.76C118.501 34.76 117.881 34.8467 117.414 35.02C116.947 35.18 116.714 35.5133 116.714 36.02C116.714 36.3533 116.834 36.62 117.074 36.82C117.314 37.0067 117.654 37.18 118.094 37.34C118.547 37.4867 119.087 37.6667 119.714 37.88C120.421 38.1067 121.014 38.36 121.494 38.64C121.974 38.9067 122.334 39.24 122.574 39.64C122.827 40.0267 122.954 40.5333 122.954 41.16C122.954 42.2133 122.554 42.9867 121.754 43.48C120.967 43.96 119.901 44.2 118.554 44.2ZM128.432 44.2C127.752 44.2 127.132 44.0933 126.572 43.88C126.012 43.6533 125.565 43.3 125.232 42.82C124.912 42.3267 124.752 41.6867 124.752 40.9C124.752 39.8467 125.105 39.0267 125.812 38.44C126.519 37.8533 127.565 37.56 128.952 37.56H132.252V36.88C132.252 36.0933 132.052 35.5467 131.652 35.24C131.252 34.92 130.519 34.76 129.452 34.76C128.839 34.76 128.239 34.8 127.652 34.88C127.065 34.96 126.492 35.0933 125.932 35.28V33.6C126.452 33.4267 127.059 33.2867 127.752 33.18C128.445 33.06 129.139 33 129.832 33C130.179 33 130.505 33.02 130.812 33.06C131.132 33.0867 131.425 33.1333 131.692 33.2H135.312L135.192 34.9H133.932C134.119 35.1933 134.245 35.5267 134.312 35.9C134.379 36.26 134.412 36.6533 134.412 37.08V44H132.252V39.24H129.072C128.339 39.24 127.779 39.3667 127.392 39.62C127.019 39.86 126.832 40.2867 126.832 40.9C126.832 41.4867 126.999 41.8933 127.332 42.12C127.679 42.3467 128.239 42.46 129.012 42.46C129.252 42.46 129.492 42.4467 129.732 42.42C129.985 42.3933 130.199 42.3533 130.372 42.3V43.96C130.132 44.0267 129.845 44.08 129.512 44.12C129.179 44.1733 128.819 44.2 128.432 44.2ZM139.42 44C138.686 44 138.153 43.82 137.82 43.46C137.486 43.1 137.32 42.5867 137.32 41.92V33.2H139.48V41.38C139.48 41.98 139.773 42.28 140.36 42.28H141.28V44H139.42ZM146.092 44.2C144.852 44.2 143.772 44 142.852 43.6V41.88C143.252 42.0533 143.686 42.1933 144.152 42.3C144.632 42.4067 145.106 42.46 145.572 42.46C146.479 42.46 147.199 42.3333 147.732 42.08C148.266 41.8267 148.646 41.42 148.872 40.86C149.112 40.2867 149.232 39.5333 149.232 38.6C149.232 37.2133 148.946 36.2267 148.372 35.64C147.812 35.0533 146.872 34.76 145.552 34.76C145.072 34.76 144.606 34.8133 144.152 34.92C143.699 35.0133 143.266 35.1533 142.852 35.34V33.6C143.306 33.4133 143.792 33.2667 144.312 33.16C144.846 33.0533 145.419 33 146.032 33C147.819 33 149.146 33.48 150.012 34.44C150.892 35.3867 151.332 36.7733 151.332 38.6C151.332 40.4133 150.912 41.8 150.072 42.76C149.246 43.72 147.919 44.2 146.092 44.2ZM157.034 44.2C155.874 44.2 154.967 43.86 154.314 43.18C153.674 42.5 153.354 41.5333 153.354 40.28V33.2H155.534V40.18C155.534 40.9933 155.714 41.58 156.074 41.94C156.434 42.2867 156.994 42.46 157.754 42.46C158.34 42.46 158.9 42.34 159.434 42.1C159.967 41.8467 160.407 41.5333 160.754 41.16V33.2H162.914V44H160.934L160.834 42.82C160.34 43.2333 159.78 43.5667 159.154 43.82C158.54 44.0733 157.834 44.2 157.034 44.2ZM167.603 44C166.87 44 166.336 43.82 166.003 43.46C165.67 43.1 165.503 42.5867 165.503 41.92V33.2H167.663V41.38C167.663 41.98 167.956 42.28 168.543 42.28H169.463V44H167.603ZM176.036 44.2C174.529 44.2 173.383 43.86 172.596 43.18C171.809 42.5 171.416 41.54 171.416 40.3V39.5C171.416 39.0733 171.529 38.6533 171.756 38.24C171.996 37.8267 172.263 37.44 172.556 37.08C172.863 36.7067 173.129 36.3667 173.356 36.06C173.596 35.74 173.716 35.4667 173.716 35.24C173.716 34.9467 173.583 34.8 173.316 34.8C173.076 34.8 172.856 34.9 172.656 35.1V35.9H171.176V33.2H172.696V33.76C172.883 33.6133 173.089 33.4867 173.316 33.38C173.556 33.26 173.856 33.2 174.216 33.2C175.229 33.2 175.736 33.7133 175.736 34.74C175.736 35.1933 175.629 35.62 175.416 36.02C175.203 36.4067 174.949 36.7867 174.656 37.16C174.376 37.5333 174.129 37.9133 173.916 38.3C173.703 38.6733 173.596 39.0733 173.596 39.5V40.34C173.596 41.0733 173.809 41.6133 174.236 41.96C174.663 42.2933 175.263 42.46 176.036 42.46C176.823 42.46 177.436 42.2867 177.876 41.94C178.316 41.5933 178.536 41.04 178.536 40.28V38.96C178.536 38.3333 178.429 37.9 178.216 37.66C178.016 37.4067 177.643 37.28 177.096 37.28H176.536L176.636 35.7H177.036C177.596 35.7 177.983 35.5667 178.196 35.3C178.423 35.02 178.536 34.5933 178.536 34.02V33H180.696V33.98C180.696 34.6067 180.603 35.1267 180.416 35.54C180.229 35.94 179.849 36.2533 179.276 36.48C179.876 36.7333 180.263 37.0667 180.436 37.48C180.609 37.8933 180.696 38.4067 180.696 39.02V40.14C180.696 41.42 180.283 42.42 179.456 43.14C178.643 43.8467 177.503 44.2 176.036 44.2ZM178.517 31.54V28.26H180.697V31.54H178.517ZM186.917 44.2C185.757 44.2 184.85 43.86 184.197 43.18C183.557 42.5 183.237 41.5333 183.237 40.28V33.2H185.417V40.18C185.417 40.9933 185.597 41.58 185.957 41.94C186.317 42.2867 186.877 42.46 187.637 42.46C188.223 42.46 188.783 42.34 189.317 42.1C189.85 41.8467 190.29 41.5333 190.637 41.16V33.2H192.797V44H190.817L190.717 42.82C190.223 43.2333 189.663 43.5667 189.037 43.82C188.423 44.0733 187.717 44.2 186.917 44.2ZM198.686 44.2C198.006 44.2 197.386 44.0933 196.826 43.88C196.266 43.6533 195.819 43.3 195.486 42.82C195.166 42.3267 195.006 41.6867 195.006 40.9C195.006 39.8467 195.359 39.0267 196.066 38.44C196.773 37.8533 197.819 37.56 199.206 37.56H202.506V36.88C202.506 36.0933 202.306 35.5467 201.906 35.24C201.506 34.92 200.773 34.76 199.706 34.76C199.093 34.76 198.493 34.8 197.906 34.88C197.319 34.96 196.746 35.0933 196.186 35.28V33.6C196.706 33.4267 197.313 33.2867 198.006 33.18C198.699 33.06 199.393 33 200.086 33C200.433 33 200.759 33.02 201.066 33.06C201.386 33.0867 201.679 33.1333 201.946 33.2H205.566L205.446 34.9H204.186C204.373 35.1933 204.499 35.5267 204.566 35.9C204.633 36.26 204.666 36.6533 204.666 37.08V44H202.506V39.24H199.326C198.593 39.24 198.033 39.3667 197.646 39.62C197.273 39.86 197.086 40.2867 197.086 40.9C197.086 41.4867 197.253 41.8933 197.586 42.12C197.933 42.3467 198.493 42.46 199.266 42.46C199.506 42.46 199.746 42.4467 199.986 42.42C200.239 42.3933 200.453 42.3533 200.626 42.3V43.96C200.386 44.0267 200.099 44.08 199.766 44.12C199.433 44.1733 199.073 44.2 198.686 44.2ZM199.882 31.56V28.64H205.762L205.682 30.16H201.682V31.56H199.882ZM207.713 44V40.1C207.713 39.5133 207.827 39 208.053 38.56C208.28 38.1067 208.693 37.7933 209.293 37.62L207.133 37.08V34.84C207.667 34.3733 208.367 33.9533 209.233 33.58C210.113 33.1933 211.14 33 212.313 33C213.9 33 215.12 33.3333 215.973 34C216.827 34.6533 217.253 35.7533 217.253 37.3V44H215.073V37.24C215.073 36.32 214.853 35.68 214.413 35.32C213.987 34.9467 213.26 34.76 212.233 34.76C211.567 34.76 210.947 34.8533 210.373 35.04C209.8 35.2267 209.347 35.4733 209.013 35.78V36.14L211.293 36.72V38.16C210.773 38.2933 210.407 38.5067 210.193 38.8C209.98 39.0933 209.873 39.5333 209.873 40.12V44H207.713ZM223.879 44V37.2C223.879 36.6533 223.819 36.2 223.699 35.84C223.579 35.48 223.352 35.2133 223.019 35.04C222.686 34.8533 222.192 34.76 221.539 34.76C221.112 34.76 220.646 34.8067 220.139 34.9C219.646 34.9933 219.199 35.12 218.799 35.28V33.6C219.199 33.4267 219.679 33.2867 220.239 33.18C220.812 33.06 221.386 33 221.959 33C223.399 33 224.439 33.3133 225.079 33.94C225.732 34.5667 226.059 35.56 226.059 36.92V44H223.879ZM232.148 44.2C231.441 44.2 230.754 44.1533 230.088 44.06C229.434 43.9667 228.894 43.8333 228.468 43.66V41.84C228.974 42.04 229.521 42.1933 230.108 42.3C230.708 42.4067 231.254 42.46 231.748 42.46C232.668 42.46 233.348 42.38 233.788 42.22C234.228 42.0467 234.448 41.6933 234.448 41.16C234.448 40.7733 234.334 40.48 234.108 40.28C233.881 40.08 233.548 39.9067 233.108 39.76C232.668 39.6 232.121 39.4133 231.468 39.2C230.854 38.9867 230.301 38.7533 229.808 38.5C229.314 38.2467 228.921 37.9267 228.628 37.54C228.348 37.1533 228.208 36.6667 228.208 36.08C228.208 35.1333 228.568 34.3867 229.288 33.84C230.008 33.28 231.094 33 232.548 33C233.161 33 233.768 33.0467 234.368 33.14C234.968 33.2333 235.461 33.3467 235.848 33.48V35.28C235.408 35.1067 234.914 34.98 234.368 34.9C233.834 34.8067 233.334 34.76 232.868 34.76C232.094 34.76 231.474 34.8467 231.008 35.02C230.541 35.18 230.308 35.5133 230.308 36.02C230.308 36.3533 230.428 36.62 230.668 36.82C230.908 37.0067 231.248 37.18 231.688 37.34C232.141 37.4867 232.681 37.6667 233.308 37.88C234.014 38.1067 234.608 38.36 235.088 38.64C235.568 38.9067 235.928 39.24 236.168 39.64C236.421 40.0267 236.548 40.5333 236.548 41.16C236.548 42.2133 236.148 42.9867 235.348 43.48C234.561 43.96 233.494 44.2 232.148 44.2ZM231.406 31.56V28.64H237.286L237.206 30.16H233.206V31.56H231.406ZM242.706 44.2C241.866 44.2 241.112 44.0133 240.446 43.64C239.779 43.2667 239.252 42.68 238.866 41.88C238.479 41.0667 238.286 40.0267 238.286 38.76C238.286 36.96 238.746 35.5533 239.666 34.54C240.586 33.5133 241.966 33 243.806 33C245.046 33 246.046 33.2133 246.806 33.64C247.566 34.0533 248.119 34.5933 248.466 35.26C248.826 35.9267 249.006 36.64 249.006 37.4V44H246.826V37.5C246.826 36.9667 246.732 36.4933 246.546 36.08C246.359 35.6667 246.039 35.3467 245.586 35.12C245.146 34.88 244.539 34.76 243.766 34.76C242.592 34.76 241.732 35.1 241.186 35.78C240.652 36.46 240.386 37.4533 240.386 38.76C240.386 40.1333 240.619 41.0933 241.086 41.64C241.552 42.1867 242.219 42.46 243.086 42.46C243.339 42.46 243.586 42.4467 243.826 42.42C244.079 42.3933 244.292 42.3533 244.466 42.3V43.96C244.239 44.04 243.986 44.1 243.706 44.14C243.426 44.18 243.092 44.2 242.706 44.2Z" fill="white"/>
<defs>
<filter id="filter0_di_104_155" x="0" y="0" width="295" height="84" filterUnits="userSpaceOnUse" color-interpolation-filters="sRGB">
<feFlood flood-opacity="0" result="BackgroundImageFix"/>
<feColorMatrix in="SourceAlpha" type="matrix" values="0 0 0 0 0 0 0 0 0 0 0 0 0 0 0 0 0 0 127 0" result="hardAlpha"/>
<feMorphology radius="2" operator="dilate" in="SourceAlpha" result="effect1_dropShadow_104_155"/>
<feOffset dx="3" dy="5"/>
<feGaussianBlur stdDeviation="3.5"/>
<feComposite in2="hardAlpha" operator="out"/>
<feColorMatrix type="matrix" values="0 0 0 0 0 0 0 0 0 0 0 0 0 0 0 0 0 0 0.2 0"/>
<feBlend mode="normal" in2="BackgroundImageFix" result="effect1_dropShadow_104_155"/>
<feBlend mode="normal" in="SourceGraphic" in2="effect1_dropShadow_104_155" result="shape"/>
<feColorMatrix in="SourceAlpha" type="matrix" values="0 0 0 0 0 0 0 0 0 0 0 0 0 0 0 0 0 0 127 0" result="hardAlpha"/>
<feOffset dy="4"/>
<feGaussianBlur stdDeviation="2.5"/>
<feComposite in2="hardAlpha" operator="arithmetic" k2="-1" k3="1"/>
<feColorMatrix type="matrix" values="0 0 0 0 0.491667 0 0 0 0 0.163889 0 0 0 0 0.163889 0 0 0 0.1 0"/>
<feBlend mode="normal" in2="shape" result="effect2_innerShadow_104_155"/>
</filter>
</defs>
</svg>
