<svg width="32" height="32" viewBox="0 0 32 32" fill="none" xmlns="http://www.w3.org/2000/svg">
<path fill-rule="evenodd" clip-rule="evenodd" d="M23.0629 9.55022L26.5855 17.1831C26.6398 17.2996 26.6673 17.4267 26.6673 17.5556V23.1111C26.6673 24.5813 25.4709 25.7778 24.0007 25.7778H8.00065C6.53043 25.7778 5.33398 24.5813 5.33398 23.1111V17.5556C5.33398 17.4267 5.36154 17.2996 5.41576 17.1831L8.93932 9.54933C9.3731 8.60889 10.3233 8 11.3607 8H20.6406C21.678 8 22.6282 8.60889 23.0629 9.55022ZM11.3607 9.77778C11.0149 9.77778 10.6985 9.98045 10.5536 10.2942L7.51003 16.8889H9.33936C10.0318 16.8889 10.63 17.3342 10.8291 17.9973L11.7829 21.1742C11.8114 21.2693 11.8967 21.3333 11.9954 21.3333H20.006C20.1047 21.3333 20.19 21.2693 20.2176 21.1751L21.1714 17.9973C21.3705 17.3342 21.9696 16.8889 22.6611 16.8889H24.4914L21.4478 10.2942C21.3029 9.98045 20.9865 9.77778 20.6407 9.77778H11.3607Z" fill="#787878"/>
</svg>
